HIERARCHY
ROOT mixamorig:Hips
{
	OFFSET -0.000419 0.014164 2.091508
	CHANNELS 6 Xposition Yposition Zposition Xrotation Yrotation Zrotation
	JOINT mixamorig:Spine
	{
		OFFSET -0.001948 0.038898 0.198048
		CHANNELS 6 Xposition Yposition Zposition Xrotation Yrotation Zrotation
		JOINT mixamorig:Spine1
		{
			OFFSET -0.002704 0.023603 0.235004
			CHANNELS 3 Xrotation Yrotation Zrotation
			JOINT mixamorig:Spine2
			{
				OFFSET -0.001091 0.011954 0.278074
				CHANNELS 3 Xrotation Yrotation Zrotation
				JOINT mixamorig:Neck
				{
					OFFSET 0.005730 -0.037617 0.310620
					CHANNELS 6 Xposition Yposition Zposition Xrotation Yrotation Zrotation
					JOINT mixamorig:Head
					{
						OFFSET 0.010419 -0.065134 0.222311
						CHANNELS 6 Xposition Yposition Zposition Xrotation Yrotation Zrotation
						End Site
						{
							OFFSET 0.010419 -0.065135 0.222311
						}
					}
				}
				JOINT mixamorig:LeftShoulder
				{
					OFFSET 0.129541 -0.026782 0.188949
					CHANNELS 6 Xposition Yposition Zposition Xrotation Yrotation Zrotation
					JOINT mixamorig:LeftArm
					{
						OFFSET 0.262609 0.040542 0.007741
						CHANNELS 3 Xrotation Yrotation Zrotation
						JOINT mixamorig:LeftForeArm
						{
							OFFSET 0.551278 0.000000 -0.000000
							CHANNELS 6 Xposition Yposition Zposition Xrotation Yrotation Zrotation
							JOINT mixamorig:LeftHand
							{
								OFFSET 0.527734 -0.000000 -0.000000
								CHANNELS 3 Xrotation Yrotation Zrotation
								End Site
								{
									OFFSET 0.527734 -0.000000 0.000000
								}
							}
						}
					}
				}
				JOINT mixamorig:RightShoulder
				{
					OFFSET -0.126373 -0.021809 0.192154
					CHANNELS 6 Xposition Yposition Zposition Xrotation Yrotation Zrotation
					JOINT mixamorig:RightArm
					{
						OFFSET -0.263355 0.054230 0.004609
						CHANNELS 3 Xrotation Yrotation Zrotation
						JOINT mixamorig:RightForeArm
						{
							OFFSET -0.558427 0.000000 0.000000
							CHANNELS 6 Xposition Yposition Zposition Xrotation Yrotation Zrotation
							JOINT mixamorig:RightHand
							{
								OFFSET -0.503137 0.000000 -0.000000
								CHANNELS 6 Xposition Yposition Zposition Xrotation Yrotation Zrotation
								End Site
								{
									OFFSET -0.503137 -0.000000 0.000000
								}
							}
						}
					}
				}
			}
		}
	}
	JOINT mixamorig:LeftUpLeg
	{
		OFFSET 0.185244 -0.026620 -0.138385
		CHANNELS 6 Xposition Yposition Zposition Xrotation Yrotation Zrotation
		JOINT mixamorig:LeftLeg
		{
			OFFSET -0.004065 0.015108 -0.852313
			CHANNELS 3 Xrotation Yrotation Zrotation
			JOINT mixamorig:LeftFoot
			{
				OFFSET 0.004508 0.051445 -0.854151
				CHANNELS 3 Xrotation Yrotation Zrotation
				JOINT mixamorig:LeftToeBase
				{
					OFFSET 0.026925 -0.242907 -0.213948
					CHANNELS 3 Xrotation Yrotation Zrotation
					End Site
					{
						OFFSET -0.005614 -0.324736 0.004268
					}
				}
			}
		}
	}
	JOINT mixamorig:RightUpLeg
	{
		OFFSET -0.184403 -0.001603 -0.144117
		CHANNELS 6 Xposition Yposition Zposition Xrotation Yrotation Zrotation
		JOINT mixamorig:RightLeg
		{
			OFFSET 0.005493 -0.010027 -0.848120
			CHANNELS 3 Xrotation Yrotation Zrotation
			JOINT mixamorig:RightFoot
			{
				OFFSET -0.005940 0.051576 -0.852616
				CHANNELS 3 Xrotation Yrotation Zrotation
				JOINT mixamorig:RightToeBase
				{
					OFFSET -0.031537 -0.248182 -0.214912
					CHANNELS 6 Xposition Yposition Zposition Xrotation Yrotation Zrotation
					End Site
					{
						OFFSET -0.045720 -0.326606 0.003764
					}
				}
			}
		}
	}
}
MOTION
Frames: 4
Frame Time: 0.033333
0.052307 -0.047188 2.067410 -2.402574 4.585663 -27.212288 -0.001948 0.038898 0.198048 1.559359 -5.154147 -2.910532 -2.715582 -5.533329 -8.660712 -2.838430 -5.494361 -8.642442 0.005730 -0.037617 0.310620 10.161911 2.915696 3.479110 0.010419 -0.065135 0.222311 10.702089 -8.145810 14.655443 0.129541 -0.026781 0.188948 4.708126 4.005490 -41.257170 30.703572 15.479387 -90.002489 0.551277 0.000000 -0.000001 -0.000048 0.000015 -62.978388 2.588964 14.910571 -16.722914 -0.126373 -0.021809 0.192154 4.058604 -2.721025 14.684541 48.321116 -47.743825 54.678137 -0.558427 0.000000 0.000000 -0.000018 0.000006 94.990009 -0.503137 0.000000 -0.000000 -83.934931 -33.851889 -1.509493 0.185244 -0.026620 -0.138385 -5.437032 -9.230626 12.766803 21.887360 -3.863110 10.024494 -8.639877 9.829217 17.705602 -4.418176 -0.000001 -0.000008 -0.184403 -0.001603 -0.144116 -1.903101 1.784652 -11.957811 11.575858 -0.216591 -5.271781 -3.603785 -3.472571 17.509671 -0.031537 -0.248182 -0.214912 -7.437694 0.000021 0.000012 
0.051694 -0.045819 2.067704 -2.352590 4.741157 -27.049057 -0.001948 0.038898 0.198048 1.583569 -5.116695 -2.852322 -2.657997 -5.470072 -8.537936 -2.777379 -5.430626 -8.520670 0.005730 -0.037617 0.310620 9.901202 2.718318 3.443631 0.010418 -0.065134 0.222310 10.433832 -7.907829 14.681656 0.129541 -0.026782 0.188948 4.292235 3.618059 -39.345178 30.412770 15.210666 -90.875715 0.551278 0.000000 -0.000000 -0.000027 0.000017 -62.549957 1.685882 13.993909 -16.930164 -0.126373 -0.021809 0.192154 4.166615 -3.142197 15.243326 48.129532 -47.074135 55.408206 -0.558427 0.000000 0.000000 -0.000001 0.000020 94.913873 -0.503137 0.000000 -0.000000 -83.638460 -33.425003 -0.186192 0.185244 -0.026620 -0.138385 -5.414505 -9.458249 12.855708 21.747642 -3.878173 10.024398 -8.495960 9.819339 17.420119 -4.420937 -0.000000 -0.000013 -0.184403 -0.001603 -0.144116 -1.767983 1.505113 -11.860966 11.307400 -0.187045 -5.247956 -3.432651 -3.455319 17.198881 -0.031537 -0.248182 -0.214912 -7.426846 0.000017 0.000007 
0.051120 -0.044152 2.067940 -2.325138 4.864485 -26.752656 -0.001948 0.038898 0.198048 1.602737 -5.079993 -2.772060 -2.607905 -5.411942 -8.373343 -2.723816 -5.371720 -8.357156 0.005730 -0.037617 0.310620 9.606970 2.632401 3.406232 0.010419 -0.065134 0.222310 9.991124 -7.600906 14.630296 0.129541 -0.026781 0.188949 3.834129 3.206998 -37.185042 30.106429 14.958265 -91.947542 0.551277 0.000000 -0.000000 -0.000037 0.000010 -61.639664 0.980327 13.371096 -17.028686 -0.126373 -0.021809 0.192154 4.289633 -3.400377 15.994775 47.965929 -46.599973 56.323447 -0.558427 0.000000 0.000000 -0.000037 0.000016 94.861212 -0.503137 0.000000 -0.000000 -83.618693 -33.029139 1.152778 0.185244 -0.026620 -0.138386 -5.422981 -9.658564 12.939006 21.594768 -3.890404 10.023945 -8.323222 9.784582 17.009121 -4.428408 0.000003 -0.000004 -0.184403 -0.001603 -0.144117 -1.637234 1.256886 -11.783547 11.071022 -0.157830 -5.226787 -3.305431 -3.429458 16.779415 -0.031537 -0.248182 -0.214912 -7.415941 0.000015 0.000009 
0.050614 -0.042361 2.068169 -2.331481 4.939058 -26.293325 -0.001948 0.038898 0.198048 1.608661 -5.050279 -2.661172 -2.579724 -5.362191 -8.152218 -2.693699 -5.320743 -8.136936 0.005730 -0.037617 0.310620 9.338158 2.726663 3.348385 0.010419 -0.065134 0.222311 9.390661 -7.244793 14.347451 0.129541 -0.026781 0.188948 3.447172 2.926990 -35.125720 29.729245 14.796664 -92.935987 0.551278 0.000000 0.000000 -0.000036 0.000006 -60.439176 0.359661 13.430941 -16.739361 -0.126373 -0.021809 0.192154 4.375489 -3.239606 16.745957 48.095030 -46.496185 57.680743 -0.558428 0.000000 -0.000000 -0.000029 0.000016 94.787815 -0.503137 -0.000000 -0.000000 -83.605955 -32.503446 2.758184 0.185244 -0.026620 -0.138386 -5.463575 -9.824606 13.014148 21.435984 -3.877678 10.023381 -8.113986 9.736399 16.437103 -4.436147 0.000001 -0.000002 -0.184403 -0.001603 -0.144117 -1.496906 1.069464 -11.753161 10.862225 -0.139153 -5.205500 -3.228894 -3.394309 16.249423 -0.031537 -0.248182 -0.214912 -7.405169 0.000011 0.000009 
